#!OML:ASF I:\Actors\actors\Patient Classification 1\Patient 1\Session 1\Subject1.ASF
:FULLY-SPECIFIED
:DEGREES
2267
root -2.15121 17.5989 7.18065 14.3422 4.64079 -4.49416
lowerback 17.4673 -0.478718 2.57419
upperback -8.06627 0.209843 1.09578
thorax -19.4588 -0.126313 -0.232578
lowerneck -12.6364 -3.13275 -1.12355
upperneck -0.311582 -4.35569 9.13686
head 2.39545 -1.86897 2.95338
rclavicle -8.33653e-015 -1.98785e-014
rhumerus 7.38512 -11.0755 -92.1103
rradius 21.0584
rwrist 69.5694
rhand 182.648 157.453
rfingers 7.12502
rthumb 28.1242 -1130.46
lclavicle -8.33653e-015 -1.98785e-014
lhumerus -328.057 62.4965 -238.259
lradius 9.51814
lwrist -107.048
lhand -21.0488 -17.989
lfingers 7.12502
lthumb 5.32727 11.924
rfemur -23.4154 1.43835 30.7458
rtibia 23.396
rfoot -19.7074 -18.0591
rtoes 14.6862
lfemur -24.1315 -9.42685 -14.9316
ltibia 21.0528
lfoot -11.6724 9.38481
ltoes -8.31328
2268
root -2.12673 17.5393 7.16036 14.4302 4.55738 -4.38179
lowerback 18.1575 -0.518387 2.54121
upperback -7.96535 0.166035 1.07205
thorax -19.788 -0.145395 -0.22388
lowerneck -12.7534 -3.03176 -1.09846
upperneck -0.428399 -4.21448 9.07621
head 2.36622 -1.80149 2.93579
rclavicle 1.0635e-014 -4.96962e-015
rhumerus 9.32058 -8.16106 -92.293
rradius 21.4455
rwrist 68.4982
rhand 182.391 158.195
rfingers 7.12502
rthumb 27.8784 -1129.76
lclavicle 1.0635e-014 -4.96962e-015
lhumerus -328.715 58.292 -239.26
lradius 9.46648
lwrist -104.885
lhand -20.8053 -18.5266
lfingers 7.12502
lthumb 5.56229 11.3804
rfemur -25.3775 0.939684 30.5702
rtibia 26.7944
rfoot -20.1474 -17.3699
rtoes 13.2765
lfemur -25.5727 -8.71561 -15.1943
ltibia 23.4541
lfoot -12.514 8.30712
ltoes -7.86232
2269
root -2.10421 17.4602 7.13805 14.5268 4.49954 -4.19071
lowerback 18.8646 -0.553705 2.42314
upperback -7.89372 0.0978355 1.00707
thorax -20.1671 -0.168363 -0.206275
lowerneck -12.7598 -2.97603 -0.969053
upperneck -0.570249 -4.14459 8.98981
head 2.30794 -1.77345 2.8853
rclavicle -8.64713e-015 1.70955e-014
rhumerus 11.3379 -6.18114 -92.5505
rradius 21.6599
rwrist 68.5405
rhand 182.108 159.226
rfingers 7.12502
rthumb 27.6083 -1128.77
lclavicle -8.64713e-015 1.70955e-014
lhumerus -329.004 53.9971 -240.089
lradius 9.4148
lwrist -102.823
lhand -20.2739 -18.7961
lfingers 7.12502
lthumb 6.07536 11.0968
rfemur -27.3621 0.740187 30.2607
rtibia 30.2536
rfoot -20.6226 -16.9302
rtoes 11.2784
lfemur -27.2398 -7.94458 -15.5559
ltibia 26.1603
lfoot -13.4979 7.24329
ltoes -7.87063
2270
root -2.08434 17.3621 7.11441 14.6208 4.4518 -4.06296
lowerback 19.4168 -0.584903 2.30926
upperback -8.06292 0.042597 0.988329
thorax -20.1429 -0.194462 -0.205832
lowerneck -12.9023 -2.95882 -0.733431
upperneck -0.542999 -4.15151 8.76189
head 2.32763 -1.77981 2.76196
rclavicle -7.72775e-015 -1.2921e-014
rhumerus 13.4134 -4.00533 -92.5788
rradius 21.8071
rwrist 68.3105
rhand 181.891 159.871
rfingers 7.12502
rthumb 27.4004 -1128.16
lclavicle -7.72775e-015 -1.2921e-014
lhumerus -328.968 49.651 -240.794
lradius 9.36089
lwrist -100.684
lhand -19.8341 -18.8083
lfingers 7.12502
lthumb 6.49999 11.072
rfemur -29.3316 0.777727 29.9629
rtibia 33.7432
rfoot -21.4572 -16.2524
rtoes 10.8284
lfemur -29.0645 -6.96494 -15.8883
ltibia 29.1264
lfoot -14.5708 6.15633
ltoes -8.12441
2271
root -2.06406 17.2473 7.08999 14.7507 4.39859 -3.97088
lowerback 20.0284 -0.62946 2.2837
upperback -7.99113 -0.0159898 0.940406
thorax -20.4259 -0.222066 -0.221217
lowerneck -13.1263 -2.92701 -0.473608
upperneck -0.482442 -4.14167 8.40356
head 2.36728 -1.77945 2.59099
rclavicle 2.48481e-015 6.55989e-015
rhumerus 15.5553 -1.48528 -92.3164
rradius 21.9477
rwrist 67.5532
rhand 181.743 159.9
rfingers 7.12502
rthumb 27.259 -1128.15
lclavicle 2.48481e-015 6.55989e-015
lhumerus -328.67 45.2934 -241.409
lradius 9.33729
lwrist -98.5066
lhand -19.7312 -18.7572
lfingers 7.12502
lthumb 6.5993 11.12
rfemur -31.357 0.998088 29.5984
rtibia 37.3018
rfoot -21.6646 -15.531
rtoes 6.51439
lfemur -30.9966 -6.01715 -16.2041
ltibia 32.2566
lfoot -15.6908 5.19019
ltoes -8.81035
2272
root -2.04165 17.1188 7.06582 14.9553 4.32508 -3.90764
lowerback 20.5526 -0.661272 2.30556
upperback -7.93542 -0.0453571 0.895954
thorax -20.6744 -0.242955 -0.270295
lowerneck -13.1973 -2.90513 -0.202772
upperneck -0.656907 -4.12521 7.99869
head 2.29698 -1.78791 2.40313
rclavicle 5.71506e-015 2.36554e-014
rhumerus 17.6706 1.24074 -91.7502
rradius 22.0869
rwrist 65.6512
rhand 180.782 159.326
rfingers 7.12502
rthumb 26.3395 -1128.87
lclavicle 5.71506e-015 2.36554e-014
lhumerus -328.233 40.9499 -242.098
lradius 9.30525
lwrist -96.2503
lhand -19.5049 -18.5485
lfingers 7.12502
lthumb 6.81782 11.3218
rfemur -33.5184 1.26316 29.1906
rtibia 40.947
rfoot -22.1132 -14.5279
rtoes 3.38552
lfemur -33.0167 -5.25248 -16.4831
ltibia 35.3985
lfoot -16.7081 4.48495
ltoes -10.177
2273
root -2.01771 16.9801 7.04249 15.2121 4.21773 -3.89931
lowerback 21.0157 -0.667418 2.39879
upperback -7.89686 -0.0212394 0.84154
thorax -20.9059 -0.25192 -0.391743
lowerneck -13.4144 -3.01403 -0.0149118
upperneck -0.625984 -4.29802 7.80137
head 2.34151 -1.87471 2.28965
rclavicle -1.86858e-014 -2.40529e-014
rhumerus 19.7113 4.40875 -90.7265
rradius 22.1871
rwrist 61.9436
rhand 178.276 157.991
rfingers 7.12502
rthumb 23.9378 -1130.54
lclavicle -1.86858e-014 -2.40529e-014
lhumerus -327.852 36.6759 -243.085
lradius 9.35133
lwrist -93.7356
lhand -19.1752 -18.3906
lfingers 7.12502
lthumb 7.13608 11.4691
rfemur -35.7574 1.38911 28.8612
rtibia 44.5809
rfoot -22.6242 -13.3754
rtoes 1.22113
lfemur -35.0839 -4.68498 -16.6801
ltibia 38.463
lfoot -17.5447 4.0214
ltoes -11.0791
2274
root -1.99163 16.8339 7.01932 15.5286 4.10963 -3.89087
lowerback 21.4464 -0.69031 2.50911
upperback -7.8696 -0.0139394 0.792448
thorax -21.1322 -0.270207 -0.510822
lowerneck -13.2819 -2.87225 0.229453
upperneck -1.02094 -4.1077 7.60412
head 2.161 -1.80086 2.1906
rclavicle 2.48481e-016 3.57812e-015
rhumerus 21.9192 5.85485 -90.2366
rradius 22.4624
rwrist 61.7393
rhand 179.296 158.272
rfingers 7.12502
rthumb 24.9162 -1130.12
lclavicle 2.48481e-016 3.57812e-015
lhumerus -327.41 32.5423 -244.255
lradius 9.50585
lwrist -91.0512
lhand -19.2281 -18.6139
lfingers 7.12502
lthumb 7.085 11.2475
rfemur -38.1118 1.23789 28.6425
rtibia 48.2032
rfoot -22.937 -12.3882
rtoes -1.5211
lfemur -37.1818 -4.26541 -16.8925
ltibia 41.4445
lfoot -18.2697 3.70633
ltoes -11.0981
2275
root -1.96477 16.6808 6.99452 15.8681 4.00216 -3.836
lowerback 21.8658 -0.730972 2.58991
upperback -7.81697 -0.0391965 0.749728
thorax -21.3185 -0.297211 -0.593483
lowerneck -13.4134 -2.86983 0.217075
upperneck -1.28488 -4.08784 7.59986
head 2.09508 -1.7963 2.19117
rclavicle 5.01931e-015 1.41137e-014
rhumerus 24.2091 7.24041 -89.6688
rradius 22.6475
rwrist 61.31
rhand 181.732 159.594
rfingers 7.12502
rthumb 27.2478 -1128.46
lclavicle 5.01931e-015 1.41137e-014
lhumerus -326.685 28.4731 -245.428
lradius 9.6069
lwrist -88.2671
lhand -19.6655 -19.038
lfingers 7.12502
lthumb 6.66273 10.8372
rfemur -40.5445 0.864848 28.4875
rtibia 51.7823
rfoot -23.0056 -11.6297
rtoes -4.37715
lfemur -39.3232 -3.85642 -17.2369
ltibia 44.4861
lfoot -18.8513 3.55112
ltoes -11.0902
2276
root -1.93837 16.5199 6.96697 16.2433 3.71117 -3.71179
lowerback 22.2548 -0.691528 2.53302
upperback -7.75532 -0.00518823 0.676008
thorax -21.4713 -0.283434 -0.657588
lowerneck -13.4503 -2.82012 0.191156
upperneck -1.64099 -3.99486 7.61232
head 1.97926 -1.75942 2.20473
rclavicle -4.96962e-016 -5.96354e-016
rhumerus 26.5065 8.2808 -89.1363
rradius 22.8551
rwrist 61.2125
rhand 181.782 159.567
rfingers 7.12502
rthumb 27.2963 -1128.48
lclavicle -4.96962e-016 -5.96354e-016
lhumerus -325.813 24.4575 -246.741
lradius 9.71031
lwrist -85.4449
lhand -20.18 -19.3317
lfingers 7.12502
lthumb 6.16605 10.5585
rfemur -43.0429 0.578727 28.2581
rtibia 55.3314
rfoot -23 -10.8514
rtoes -5.82456
lfemur -41.5797 -3.33758 -17.7181
ltibia 47.6681
lfoot -19.2389 3.41617
ltoes -10.7095
2277
root -1.9135 16.3509 6.93985 16.581 3.26273 -3.54668
lowerback 22.7497 -0.581901 2.35945
upperback -7.73436 0.0827393 0.560852
thorax -21.7397 -0.236917 -0.725258
lowerneck -13.4796 -2.73788 0.224193
upperneck -1.78438 -3.88201 7.62565
head 1.93133 -1.70671 2.20974
rclavicle -3.8763e-015 1.39149e-015
rhumerus 28.6488 9.09697 -88.6262
rradius 23.1006
rwrist 61.156
rhand 182.198 159.853
rfingers 7.12502
rthumb 27.6942 -1128.13
lclavicle -3.8763e-015 1.39149e-015
lhumerus -324.996 20.5317 -248.274
lradius 9.94574
lwrist -82.6448
lhand -20.4036 -19.3381
lfingers 7.12502
lthumb 5.95016 10.5583
rfemur -45.4603 0.506967 27.9229
rtibia 58.7784
rfoot -22.99 -10.0019
rtoes -6.424
lfemur -43.8843 -2.71488 -18.24
ltibia 50.9753
lfoot -19.4135 3.10513
ltoes -9.9808
